<mxfile host="app.diagrams.net" modified="2024-05-10T02:38:04.783Z" agent="Mozilla/5.0 (Windows NT 10.0; Win64; x64) AppleWebKit/537.36 (KHTML, like Gecko) Chrome/124.0.0.0 Safari/537.36" etag="mzoXPelKXrQwRHYFDRXZ" version="24.3.1" type="github">
  <diagram name="第 1 页" id="UkBSAYhfNnw3rhTz4BNa">
    <mxGraphModel dx="1434" dy="749" grid="1" gridSize="10" guides="1" tooltips="1" connect="1" arrows="1" fold="1" page="1" pageScale="1" pageWidth="827" pageHeight="1169" math="0" shadow="0">
      <root>
        <mxCell id="0" />
        <mxCell id="1" parent="0" />
        <mxCell id="bz3tG6LPTrK5AdoUV8Yw-1" value="" style="html=1;points=[[0,0,0,0,5],[0,1,0,0,-5],[1,0,0,0,5],[1,1,0,0,-5]];perimeter=orthogonalPerimeter;outlineConnect=0;targetShapes=umlLifeline;portConstraint=eastwest;newEdgeStyle={&quot;curved&quot;:0,&quot;rounded&quot;:0};" vertex="1" parent="1">
          <mxGeometry x="190" y="80" width="10" height="1230" as="geometry" />
        </mxCell>
        <mxCell id="bz3tG6LPTrK5AdoUV8Yw-2" value="" style="html=1;points=[[0,0,0,0,5],[0,1,0,0,-5],[1,0,0,0,5],[1,1,0,0,-5]];perimeter=orthogonalPerimeter;outlineConnect=0;targetShapes=umlLifeline;portConstraint=eastwest;newEdgeStyle={&quot;curved&quot;:0,&quot;rounded&quot;:0};" vertex="1" parent="1">
          <mxGeometry x="290" y="120" width="10" height="80" as="geometry" />
        </mxCell>
        <mxCell id="bz3tG6LPTrK5AdoUV8Yw-3" value="前置校验" style="html=1;verticalAlign=bottom;endArrow=block;curved=0;rounded=0;entryX=0;entryY=0;entryDx=0;entryDy=5;" edge="1" target="bz3tG6LPTrK5AdoUV8Yw-2" parent="1" source="bz3tG6LPTrK5AdoUV8Yw-1">
          <mxGeometry relative="1" as="geometry">
            <mxPoint x="200" y="125" as="sourcePoint" />
          </mxGeometry>
        </mxCell>
        <mxCell id="bz3tG6LPTrK5AdoUV8Yw-4" value="return" style="html=1;verticalAlign=bottom;endArrow=open;dashed=1;endSize=8;curved=0;rounded=0;exitX=0;exitY=1;exitDx=0;exitDy=-5;" edge="1" parent="1">
          <mxGeometry relative="1" as="geometry">
            <mxPoint x="200" y="184.4999999999999" as="targetPoint" />
            <mxPoint x="290" y="184.4999999999999" as="sourcePoint" />
          </mxGeometry>
        </mxCell>
        <mxCell id="bz3tG6LPTrK5AdoUV8Yw-5" value="" style="html=1;points=[[0,0,0,0,5],[0,1,0,0,-5],[1,0,0,0,5],[1,1,0,0,-5]];perimeter=orthogonalPerimeter;outlineConnect=0;targetShapes=umlLifeline;portConstraint=eastwest;newEdgeStyle={&quot;curved&quot;:0,&quot;rounded&quot;:0};" vertex="1" parent="1">
          <mxGeometry x="340" y="250" width="10" height="80" as="geometry" />
        </mxCell>
        <mxCell id="bz3tG6LPTrK5AdoUV8Yw-6" value="获取懒加载子集集合" style="html=1;verticalAlign=bottom;endArrow=block;curved=0;rounded=0;entryX=0;entryY=0;entryDx=0;entryDy=5;" edge="1" target="bz3tG6LPTrK5AdoUV8Yw-5" parent="1" source="bz3tG6LPTrK5AdoUV8Yw-1">
          <mxGeometry relative="1" as="geometry">
            <mxPoint x="210" y="254.72000000000003" as="sourcePoint" />
          </mxGeometry>
        </mxCell>
        <mxCell id="bz3tG6LPTrK5AdoUV8Yw-7" value="return" style="html=1;verticalAlign=bottom;endArrow=open;dashed=1;endSize=8;curved=0;rounded=0;exitX=0;exitY=1;exitDx=0;exitDy=-5;" edge="1" source="bz3tG6LPTrK5AdoUV8Yw-5" parent="1" target="bz3tG6LPTrK5AdoUV8Yw-1">
          <mxGeometry relative="1" as="geometry">
            <mxPoint x="220" y="325" as="targetPoint" />
          </mxGeometry>
        </mxCell>
        <mxCell id="bz3tG6LPTrK5AdoUV8Yw-8" value="" style="html=1;points=[[0,0,0,0,5],[0,1,0,0,-5],[1,0,0,0,5],[1,1,0,0,-5]];perimeter=orthogonalPerimeter;outlineConnect=0;targetShapes=umlLifeline;portConstraint=eastwest;newEdgeStyle={&quot;curved&quot;:0,&quot;rounded&quot;:0};" vertex="1" parent="1">
          <mxGeometry x="414" y="400" width="10" height="80" as="geometry" />
        </mxCell>
        <mxCell id="bz3tG6LPTrK5AdoUV8Yw-9" value="获取数据库中的员工信息数据&lt;br&gt;（同时将子集名称替换为变更单名称）" style="html=1;verticalAlign=bottom;endArrow=block;curved=0;rounded=0;entryX=0;entryY=0;entryDx=0;entryDy=5;" edge="1" target="bz3tG6LPTrK5AdoUV8Yw-8" parent="1" source="bz3tG6LPTrK5AdoUV8Yw-1">
          <mxGeometry relative="1" as="geometry">
            <mxPoint x="320" y="405" as="sourcePoint" />
          </mxGeometry>
        </mxCell>
        <mxCell id="bz3tG6LPTrK5AdoUV8Yw-10" value="return" style="html=1;verticalAlign=bottom;endArrow=open;dashed=1;endSize=8;curved=0;rounded=0;exitX=0;exitY=1;exitDx=0;exitDy=-5;" edge="1" source="bz3tG6LPTrK5AdoUV8Yw-8" parent="1" target="bz3tG6LPTrK5AdoUV8Yw-1">
          <mxGeometry relative="1" as="geometry">
            <mxPoint x="320" y="475" as="targetPoint" />
          </mxGeometry>
        </mxCell>
        <mxCell id="bz3tG6LPTrK5AdoUV8Yw-11" value="" style="html=1;points=[[0,0,0,0,5],[0,1,0,0,-5],[1,0,0,0,5],[1,1,0,0,-5]];perimeter=orthogonalPerimeter;outlineConnect=0;targetShapes=umlLifeline;portConstraint=eastwest;newEdgeStyle={&quot;curved&quot;:0,&quot;rounded&quot;:0};" vertex="1" parent="1">
          <mxGeometry x="390" y="550" width="10" height="530" as="geometry" />
        </mxCell>
        <mxCell id="bz3tG6LPTrK5AdoUV8Yw-12" value="合并入参的变更单数据&lt;br&gt;和数据库中的员工信息数据" style="html=1;verticalAlign=bottom;endArrow=block;curved=0;rounded=0;entryX=0;entryY=0;entryDx=0;entryDy=5;" edge="1" target="bz3tG6LPTrK5AdoUV8Yw-11" parent="1" source="bz3tG6LPTrK5AdoUV8Yw-1">
          <mxGeometry relative="1" as="geometry">
            <mxPoint x="370" y="555" as="sourcePoint" />
          </mxGeometry>
        </mxCell>
        <mxCell id="bz3tG6LPTrK5AdoUV8Yw-13" value="return" style="html=1;verticalAlign=bottom;endArrow=open;dashed=1;endSize=8;curved=0;rounded=0;exitX=0;exitY=1;exitDx=0;exitDy=-5;" edge="1" source="bz3tG6LPTrK5AdoUV8Yw-11" parent="1" target="bz3tG6LPTrK5AdoUV8Yw-1">
          <mxGeometry relative="1" as="geometry">
            <mxPoint x="370" y="625" as="targetPoint" />
          </mxGeometry>
        </mxCell>
        <mxCell id="bz3tG6LPTrK5AdoUV8Yw-14" value="" style="html=1;points=[[0,0,0,0,5],[0,1,0,0,-5],[1,0,0,0,5],[1,1,0,0,-5]];perimeter=orthogonalPerimeter;outlineConnect=0;targetShapes=umlLifeline;portConstraint=eastwest;newEdgeStyle={&quot;curved&quot;:0,&quot;rounded&quot;:0};" vertex="1" parent="1">
          <mxGeometry x="560" y="585" width="10" height="80" as="geometry" />
        </mxCell>
        <mxCell id="bz3tG6LPTrK5AdoUV8Yw-15" value="深拷贝一份入参数据&lt;br&gt;（放入OrigBizDto留作备份）" style="html=1;verticalAlign=bottom;endArrow=block;curved=0;rounded=0;entryX=0;entryY=0;entryDx=0;entryDy=5;" edge="1" target="bz3tG6LPTrK5AdoUV8Yw-14" parent="1" source="bz3tG6LPTrK5AdoUV8Yw-11">
          <mxGeometry relative="1" as="geometry">
            <mxPoint x="430" y="590" as="sourcePoint" />
          </mxGeometry>
        </mxCell>
        <mxCell id="bz3tG6LPTrK5AdoUV8Yw-16" value="return" style="html=1;verticalAlign=bottom;endArrow=open;dashed=1;endSize=8;curved=0;rounded=0;exitX=0;exitY=1;exitDx=0;exitDy=-5;" edge="1" source="bz3tG6LPTrK5AdoUV8Yw-14" parent="1" target="bz3tG6LPTrK5AdoUV8Yw-11">
          <mxGeometry relative="1" as="geometry">
            <mxPoint x="430" y="660" as="targetPoint" />
          </mxGeometry>
        </mxCell>
      </root>
    </mxGraphModel>
  </diagram>
</mxfile>
